<?xml version="1.0"?>
<svg id="Capa_1" xmlns="http://www.w3.org/2000/svg" xmlns:xlink="http://www.w3.org/1999/xlink" version="1.1" viewBox="0 0 1366 768">
  
  <defs>
    
    
    <linearGradient id="Degradado_sin_nombre" data-name="Degradado sin nombre" x1="1154.38" y1="430.59" x2="679.5" y2="314.85" gradientTransform="translate(0 770) scale(1 -1)" gradientUnits="userSpaceOnUse">
      <stop offset="0" stop-color="#fff"></stop>
      <stop offset=".14" stop-color="#aaf2d7"></stop>
      <stop offset=".41" stop-color="#04d98b"></stop>
      <stop offset=".44" stop-color="#10d984"></stop>
      <stop offset=".49" stop-color="#30da72"></stop>
      <stop offset=".56" stop-color="#64dc54"></stop>
      <stop offset=".64" stop-color="#abdf2c"></stop>
      <stop offset=".71" stop-color="#f2e205"></stop>
    </linearGradient>
  </defs>
  <path fill="#ffffff" d="M693.43,235.72h0c-24.05,13.32-32.52,44-18.93,68.51l108.27,196.34c13.6,24.51,44.01,33.63,68.06,20.31h0c24.05-13.32,32.52-44,18.93-68.51l-108.17-196.39c-13.6-24.51-44.11-33.59-68.16-20.27h0Z"></path>
  <g>
    <path fill="#ffffff" d="M1091.13,210.78c-95.03.51-171.65,77.95-171.15,172.98.51,95.03,77.95,171.65,172.98,171.15,95.03-.51,171.65-77.95,171.15-172.98-.51-95.03-76.99-171.66-172.98-171.15h0ZM1092.43,454.22c-39.42.21-71.55-31.58-71.76-71s31.58-71.55,71-71.76,71.55,31.58,71.76,71-31.58,71.55-71,71.76Z"></path>
    <path fill="url(#Degradado_sin_nombre)" d="M1186.24,277.22c-3.24,20.31-17.35,37.33-42.21,41.79-5.78,1.04-9.11,1.11-15.64.14-4.39-.65-11.76-3.45-15.68-4.5-4.28-1.37-8.73-2.12-13.44-2.66-1.86-.21-5.69-.4-6.83-.4s-2.69.02-3.75.07c-1.62,0-5.32.45-5.97.54-5.23.6-9.78,1.78-14.74,3.48-1.54.54-4.15,1.63-5.07,2.05-2.59,1.18-4.7,2.26-7,3.58-3.01,1.73-5.68,3.58-8.28,5.63-2.41,1.91-5.27,4.6-5.27,4.6-.49.47-1.07,1.07-1.66,1.67-.65.63-2.4,2.57-3.16,3.44-.2.23-.81.97-1.01,1.23-1.75,2.01-4.57,6.27-5.13,7.15-.62.98-1.48,2.46-2.13,3.6-10.33,18.36-52.43,93.69-75.75,134.89-5.57,9.84-7.41,13.08-13.24,23.44-13.25,23.54-31.34,50.55-79.46,50.55-43.38,0-61.69-26.9-83.6-66.91,0,0,45.29,23.18,78.05-38.26,36.21-67.91,69.76-124.56,76.5-136.54,9.42-16.73,50.71-105.34,159.43-105.34,25.42,0,41.66,4.48,57.13,9.68,1.51.51,4.98,1.67,7.07,2.59,2.53,1.12,4.14,1.87,5.96,2.91,17.26,9.88,28.36,29.71,24.86,51.58h.02Z"></path>
  </g>
  <path fill="#ffffff" d="M581.13,557.13h0c27.49.11,49.86-22.52,49.96-50.55l-1.01-225.59c.1-28.03-22.1-50.85-49.6-50.96h0c-27.49-.11-49.86,22.52-49.96,50.55l1.01,225.59c-.1,28.03,22.1,50.85,49.6,50.96Z"></path>
  <path fill="#ffffff" d="M492.46,288.23c.16-1.09.3-2.18.4-3.27.05-.53.08-1.05.11-1.58.06-1.01.1-2.02.11-3.03,0-.11.01-.21.01-.32v-.34c0-.33,0-.66-.01-.99,0-.07-.01-.15-.01-.22-.44-17.48-9.06-31.93-23.52-40.85-5.6-3.45-12.92-6.41-19.22-7.03-.11-.02-.23-.04-.34-.06h-.07c-2.34-.35-4.7-.51-7.06-.51-17.68,0-34.83,9.34-44.03,25.91l-101.1,182.37-99.67-178.96c-.11-.2-.23-.39-.35-.59l-.12-.22-1.43-2.6c-9.18-16.57-26.33-25.91-44.03-25.91-3.42,0-6.84.35-10.24,1.06,0,0-.03,0-.04,0-5.06.88-10.01,2.57-14.66,5.15-7.63,4.23-13.6,10.35-17.75,17.58-9.28,14.96-10.38,34.38-1.23,50.88l.95,1.7c.09.16.18.33.27.49l.13.23c.17.33.33.66.51.98,0,0,45.32,83.24,81.44,146.91l.08.14c.09.15.18.31.26.46l.02.02c15.14,26.69,28.64,49.87,36.43,61.93,10.84,16.77,23.77,28.88,40.95,35.08l.02.03h.07c8.46,3.04,17.93,4.67,28.72,4.67,9.71,0,18.82-1.64,27.19-4.62h0c17.93-6.38,32.48-18.94,42.29-35.02,5.23-8.58,11.5-19.21,18.38-31.08l.05-.05.37-.68c39.67-68.51,99.32-177.79,99.32-177.79,3.31-5.96,5.47-12.23,6.56-18.5.06-.3.12-.6.16-.9.03-.16.03-.32.06-.47h.02Z"></path>
</svg>